# Blender v2.77 (sub 0) OBJ File: 'camera.blend'
# www.blender.org
mtllib camera.mtl
o Curve_Curve.017
v 2.090487 -1.478224 0.262397
v 1.247111 -0.636209 0.262397
v 1.247111 -1.426152 0.262397
v 1.246723 -1.437876 0.262397
v 1.245571 -1.449485 0.262397
v 1.243667 -1.460945 0.262397
v 1.241027 -1.472221 0.262397
v 1.237665 -1.483279 0.262397
v 1.233595 -1.494084 0.262397
v 1.228831 -1.504602 0.262397
v 1.223388 -1.514798 0.262397
v 1.217280 -1.524638 0.262397
v 1.210520 -1.534087 0.262397
v 1.203125 -1.543110 0.262397
v 1.195107 -1.551674 0.262397
v 1.186541 -1.559691 0.262397
v 1.177515 -1.567085 0.262397
v 1.168064 -1.573843 0.262397
v 1.158223 -1.579950 0.262397
v 1.148024 -1.585392 0.262397
v 1.137504 -1.590155 0.262397
v 1.126697 -1.594224 0.262397
v 1.115637 -1.597586 0.262397
v 1.104358 -1.600225 0.262397
v 1.092896 -1.602128 0.262397
v 1.081284 -1.603280 0.262397
v 1.069558 -1.603668 0.262397
v 1.032336 -1.603668 0.262397
v 0.927146 -1.603668 0.262397
v 0.763695 -1.603668 0.262397
v 0.551696 -1.603668 0.262397
v 0.300856 -1.603668 0.262397
v 0.020887 -1.603668 0.262397
v -0.278502 -1.603668 0.262397
v -0.587601 -1.603668 0.262397
v -0.896701 -1.603668 0.262397
v -1.196090 -1.603668 0.262397
v -1.476059 -1.603668 0.262397
v -1.726899 -1.603668 0.262397
v -1.738625 -1.603280 0.262397
v -1.750237 -1.602128 0.262397
v -1.761699 -1.600225 0.262397
v -1.772977 -1.597586 0.262397
v -1.784038 -1.594224 0.262397
v -1.794845 -1.590155 0.262397
v -1.805365 -1.585392 0.262397
v -1.815563 -1.579950 0.262397
v -1.825405 -1.573843 0.262397
v -1.834855 -1.567085 0.262397
v -1.843881 -1.559691 0.262397
v -1.852447 -1.551674 0.262397
v -1.860465 -1.543110 0.262397
v -1.867861 -1.534087 0.262397
v -1.874620 -1.524638 0.262397
v -1.880729 -1.514798 0.262397
v -1.886172 -1.504602 0.262397
v -1.890936 -1.494084 0.262397
v -1.895006 -1.483279 0.262397
v -1.898368 -1.472221 0.262397
v -1.901008 -1.460945 0.262397
v -1.902911 -1.449485 0.262397
v -1.904064 -1.437876 0.262397
v -1.904451 -1.426152 0.262397
v -1.904451 -1.388939 0.262397
v -1.904451 -1.283770 0.262397
v -1.904451 -1.120355 0.262397
v -1.904451 -0.908400 0.262397
v -1.904451 -0.657613 0.262397
v -1.904451 -0.377703 0.262397
v -1.904451 -0.078377 0.262397
v -1.904451 0.230657 0.262397
v -1.904451 0.539691 0.262397
v -1.904451 0.839017 0.262397
v -1.904451 1.118927 0.262397
v -1.904451 1.369714 0.262397
v -1.904064 1.381438 0.262397
v -1.902912 1.393047 0.262397
v -1.901008 1.404507 0.262397
v -1.898368 1.415783 0.262397
v -1.895006 1.426841 0.262397
v -1.890936 1.437646 0.262397
v -1.886172 1.448164 0.262397
v -1.880729 1.458359 0.262397
v -1.874621 1.468199 0.262397
v -1.867861 1.477648 0.262397
v -1.860465 1.486672 0.262397
v -1.852447 1.495236 0.262397
v -1.843881 1.503252 0.262397
v -1.834856 1.510646 0.262397
v -1.825405 1.517404 0.262397
v -1.815563 1.523511 0.262397
v -1.805365 1.528953 0.262397
v -1.794845 1.533716 0.262397
v -1.784038 1.537786 0.262397
v -1.772978 1.541147 0.262397
v -1.761699 1.543787 0.262397
v -1.750237 1.545689 0.262397
v -1.738625 1.546842 0.262397
v -1.726899 1.547229 0.262397
v -1.689677 1.547229 0.262397
v -1.584486 1.547229 0.262397
v -1.421036 1.547229 0.262397
v -1.209036 1.547229 0.262397
v -0.958197 1.547229 0.262397
v -0.678227 1.547229 0.262397
v -0.378838 1.547229 0.262397
v -0.069739 1.547229 0.262397
v 0.239360 1.547229 0.262397
v 0.538749 1.547229 0.262397
v 0.818718 1.547229 0.262397
v 1.069558 1.547229 0.262397
v 1.081284 1.546842 0.262397
v 1.092896 1.545689 0.262397
v 1.104358 1.543787 0.262397
v 1.115637 1.541147 0.262397
v 1.126697 1.537786 0.262397
v 1.137504 1.533716 0.262397
v 1.148024 1.528953 0.262397
v 1.158223 1.523511 0.262397
v 1.168064 1.517404 0.262397
v 1.177515 1.510646 0.262397
v 1.186541 1.503252 0.262397
v 1.195107 1.495236 0.262397
v 1.203125 1.486672 0.262397
v 1.210521 1.477648 0.262397
v 1.217280 1.468199 0.262397
v 1.223388 1.458359 0.262397
v 1.228831 1.448163 0.262397
v 1.233595 1.437646 0.262397
v 1.237665 1.426841 0.262397
v 1.241028 1.415783 0.262397
v 1.243668 1.404507 0.262397
v 1.245571 1.393047 0.262397
v 1.246723 1.381438 0.262397
v 1.247111 1.369714 0.262397
v 1.247111 1.359195 0.262397
v 1.247111 1.329470 0.262397
v 1.247111 1.283281 0.262397
v 1.247111 1.223373 0.262397
v 1.247111 1.152489 0.262397
v 1.247111 1.073374 0.262397
v 1.247111 0.988771 0.262397
v 1.247111 0.901424 0.262397
v 1.247111 0.814077 0.262397
v 1.247111 0.729473 0.262397
v 1.247111 0.650358 0.262397
v 1.247111 0.579475 0.262397
v 2.090487 1.421489 0.262397
v 2.096111 1.426889 0.262397
v 2.101952 1.432025 0.262397
v 2.108001 1.436891 0.262397
v 2.114249 1.441481 0.262397
v 2.120684 1.445791 0.262397
v 2.127299 1.449815 0.262397
v 2.134082 1.453546 0.262397
v 2.141025 1.456979 0.262397
v 2.148118 1.460109 0.262397
v 2.155351 1.462931 0.262397
v 2.162715 1.465438 0.262397
v 2.170199 1.467625 0.262397
v 2.177773 1.469481 0.262397
v 2.185402 1.471000 0.262397
v 2.193076 1.472181 0.262397
v 2.200783 1.473025 0.262397
v 2.208512 1.473531 0.262397
v 2.216253 1.473700 0.262397
v 2.223993 1.473531 0.262397
v 2.231723 1.473025 0.262397
v 2.239430 1.472181 0.262397
v 2.247103 1.471000 0.262397
v 2.254733 1.469481 0.262397
v 2.262306 1.467625 0.262397
v 2.269791 1.465438 0.262397
v 2.277154 1.462931 0.262397
v 2.284388 1.460109 0.262397
v 2.291481 1.456979 0.262397
v 2.298424 1.453546 0.262397
v 2.305207 1.449815 0.262397
v 2.311822 1.445791 0.262397
v 2.318257 1.441481 0.262397
v 2.324505 1.436891 0.262397
v 2.330554 1.432025 0.262397
v 2.336395 1.426889 0.262397
v 2.342020 1.421489 0.262397
v 2.342020 1.382897 0.262397
v 2.342020 1.273834 0.262397
v 2.342020 1.104365 0.262397
v 2.342020 0.884560 0.262397
v 2.342020 0.624485 0.262397
v 2.342020 0.334208 0.262397
v 2.342020 0.023796 0.262397
v 2.342020 -0.296684 0.262397
v 2.342020 -0.617163 0.262397
v 2.342020 -0.927576 0.262397
v 2.342020 -1.217853 0.262397
v 2.342020 -1.477928 0.262397
v 2.336401 -1.483334 0.262397
v 2.330566 -1.488477 0.262397
v 2.324522 -1.493350 0.262397
v 2.318280 -1.497948 0.262397
v 2.311850 -1.502266 0.262397
v 2.305240 -1.506297 0.262397
v 2.298461 -1.510036 0.262397
v 2.291522 -1.513477 0.262397
v 2.284433 -1.516616 0.262397
v 2.277203 -1.519446 0.262397
v 2.269843 -1.521961 0.262397
v 2.262361 -1.524157 0.262397
v 2.254789 -1.526022 0.262397
v 2.247162 -1.527550 0.262397
v 2.239490 -1.528741 0.262397
v 2.231784 -1.529593 0.262397
v 2.224055 -1.530109 0.262397
v 2.216315 -1.530287 0.262397
v 2.208574 -1.530127 0.262397
v 2.200844 -1.529630 0.262397
v 2.193136 -1.528795 0.262397
v 2.185461 -1.527623 0.262397
v 2.177830 -1.526113 0.262397
v 2.170254 -1.524266 0.262397
v 2.162767 -1.522088 0.262397
v 2.155400 -1.519589 0.262397
v 2.148164 -1.516776 0.262397
v 2.141067 -1.513654 0.262397
v 2.134120 -1.510229 0.262397
v 2.127332 -1.506506 0.262397
v 2.120713 -1.502490 0.262397
v 2.114272 -1.498188 0.262397
v 2.108020 -1.493605 0.262397
v 2.101964 -1.488746 0.262397
v 2.096117 -1.483617 0.262397
vn 0.000000 0.000000 -1.000000
vn 0.000000 0.000000 1.000000
usemtl SVGMat.004
s off
f 40//1 38//1 39//1
f 40//1 37//1 38//1
f 40//1 36//1 37//1
f 40//1 35//1 36//1
f 40//1 34//1 35//1
f 40//1 33//1 34//1
f 40//1 32//1 33//1
f 40//1 31//1 32//1
f 40//1 30//1 31//1
f 40//1 29//1 30//1
f 40//1 28//1 29//1
f 40//1 27//1 28//1
f 40//1 26//1 27//1
f 41//1 26//1 40//1
f 41//1 25//1 26//1
f 42//1 25//1 41//1
f 42//1 24//1 25//1
f 43//1 24//1 42//1
f 43//1 23//1 24//1
f 44//1 23//1 43//1
f 44//1 22//1 23//1
f 45//1 22//1 44//1
f 45//1 21//1 22//1
f 46//1 21//1 45//1
f 46//1 20//1 21//1
f 47//1 20//1 46//1
f 47//1 19//1 20//1
f 48//1 19//1 47//1
f 48//1 18//1 19//1
f 49//1 18//1 48//1
f 49//1 17//1 18//1
f 50//1 17//1 49//1
f 50//1 16//1 17//1
f 51//1 16//1 50//1
f 51//1 15//1 16//1
f 52//1 15//1 51//1
f 52//1 14//1 15//1
f 52//1 13//1 14//1
f 53//1 13//1 52//1
f 53//1 12//1 13//1
f 54//1 12//1 53//1
f 215//1 213//1 214//1
f 216//1 213//1 215//1
f 216//1 212//1 213//1
f 217//1 212//1 216//1
f 217//1 211//1 212//1
f 218//1 211//1 217//1
f 218//1 210//1 211//1
f 219//1 210//1 218//1
f 219//1 209//1 210//1
f 220//1 209//1 219//1
f 220//1 208//1 209//1
f 54//1 11//1 12//1
f 55//1 11//1 54//1
f 221//1 208//1 220//1
f 221//1 207//1 208//1
f 222//1 207//1 221//1
f 222//1 206//1 207//1
f 223//1 206//1 222//1
f 223//1 205//1 206//1
f 224//1 205//1 223//1
f 224//1 204//1 205//1
f 55//1 10//1 11//1
f 56//1 10//1 55//1
f 225//1 204//1 224//1
f 225//1 203//1 204//1
f 226//1 203//1 225//1
f 226//1 202//1 203//1
f 227//1 202//1 226//1
f 227//1 201//1 202//1
f 56//1 9//1 10//1
f 57//1 9//1 56//1
f 228//1 201//1 227//1
f 228//1 200//1 201//1
f 229//1 200//1 228//1
f 229//1 199//1 200//1
f 57//1 8//1 9//1
f 58//1 8//1 57//1
f 230//1 199//1 229//1
f 230//1 198//1 199//1
f 231//1 198//1 230//1
f 231//1 197//1 198//1
f 1//1 197//1 231//1
f 1//1 196//1 197//1
f 58//1 7//1 8//1
f 59//1 7//1 58//1
f 2//1 196//1 1//1
f 2//1 195//1 196//1
f 59//1 6//1 7//1
f 60//1 6//1 59//1
f 60//1 5//1 6//1
f 61//1 5//1 60//1
f 61//1 4//1 5//1
f 62//1 4//1 61//1
f 62//1 3//1 4//1
f 63//1 3//1 62//1
f 64//1 3//1 63//1
f 64//1 2//1 3//1
f 65//1 2//1 64//1
f 66//1 2//1 65//1
f 2//1 194//1 195//1
f 67//1 2//1 66//1
f 2//1 193//1 194//1
f 68//1 2//1 67//1
f 69//1 2//1 68//1
f 69//1 193//1 2//1
f 69//1 192//1 193//1
f 70//1 192//1 69//1
f 70//1 191//1 192//1
f 71//1 191//1 70//1
f 71//1 190//1 191//1
f 72//1 190//1 71//1
f 72//1 147//1 190//1
f 147//1 189//1 190//1
f 73//1 147//1 72//1
f 73//1 146//1 147//1
f 148//1 189//1 147//1
f 148//1 188//1 189//1
f 73//1 145//1 146//1
f 73//1 144//1 145//1
f 73//1 143//1 144//1
f 74//1 143//1 73//1
f 148//1 187//1 188//1
f 74//1 142//1 143//1
f 74//1 141//1 142//1
f 74//1 140//1 141//1
f 148//1 186//1 187//1
f 75//1 140//1 74//1
f 75//1 139//1 140//1
f 75//1 138//1 139//1
f 148//1 185//1 186//1
f 75//1 137//1 138//1
f 75//1 136//1 137//1
f 75//1 135//1 136//1
f 76//1 135//1 75//1
f 76//1 134//1 135//1
f 76//1 133//1 134//1
f 77//1 133//1 76//1
f 148//1 184//1 185//1
f 77//1 132//1 133//1
f 78//1 132//1 77//1
f 78//1 131//1 132//1
f 79//1 131//1 78//1
f 79//1 130//1 131//1
f 80//1 130//1 79//1
f 149//1 184//1 148//1
f 149//1 183//1 184//1
f 80//1 129//1 130//1
f 81//1 129//1 80//1
f 150//1 183//1 149//1
f 150//1 182//1 183//1
f 151//1 182//1 150//1
f 151//1 181//1 182//1
f 152//1 181//1 151//1
f 152//1 180//1 181//1
f 81//1 128//1 129//1
f 82//1 128//1 81//1
f 153//1 180//1 152//1
f 153//1 179//1 180//1
f 154//1 179//1 153//1
f 154//1 178//1 179//1
f 82//1 127//1 128//1
f 83//1 127//1 82//1
f 155//1 178//1 154//1
f 155//1 177//1 178//1
f 156//1 177//1 155//1
f 156//1 176//1 177//1
f 157//1 176//1 156//1
f 157//1 175//1 176//1
f 83//1 126//1 127//1
f 84//1 126//1 83//1
f 158//1 175//1 157//1
f 158//1 174//1 175//1
f 159//1 174//1 158//1
f 159//1 173//1 174//1
f 160//1 173//1 159//1
f 160//1 172//1 173//1
f 161//1 172//1 160//1
f 161//1 171//1 172//1
f 84//1 125//1 126//1
f 85//1 125//1 84//1
f 162//1 171//1 161//1
f 162//1 170//1 171//1
f 163//1 170//1 162//1
f 163//1 169//1 170//1
f 164//1 169//1 163//1
f 164//1 168//1 169//1
f 165//1 168//1 164//1
f 165//1 167//1 168//1
f 166//1 167//1 165//1
f 85//1 124//1 125//1
f 86//1 124//1 85//1
f 86//1 123//1 124//1
f 87//1 123//1 86//1
f 88//1 123//1 87//1
f 88//1 122//1 123//1
f 89//1 122//1 88//1
f 89//1 121//1 122//1
f 90//1 121//1 89//1
f 90//1 120//1 121//1
f 91//1 120//1 90//1
f 91//1 119//1 120//1
f 92//1 119//1 91//1
f 92//1 118//1 119//1
f 93//1 118//1 92//1
f 93//1 117//1 118//1
f 94//1 117//1 93//1
f 94//1 116//1 117//1
f 95//1 116//1 94//1
f 95//1 115//1 116//1
f 96//1 115//1 95//1
f 96//1 114//1 115//1
f 97//1 114//1 96//1
f 97//1 113//1 114//1
f 98//1 113//1 97//1
f 98//1 112//1 113//1
f 99//1 112//1 98//1
f 99//1 111//1 112//1
f 100//2 111//2 99//2
f 101//2 111//2 100//2
f 102//2 111//2 101//2
f 103//1 111//1 102//1
f 104//2 111//2 103//2
f 105//2 111//2 104//2
f 106//1 111//1 105//1
f 107//2 111//2 106//2
f 108//2 111//2 107//2
f 109//2 111//2 108//2
f 110//2 111//2 109//2
o Cylinder
v 0.000000 3.540001 -0.259998
v 0.000000 3.540001 0.260002
v 0.690620 3.471981 -0.259998
v 0.690620 3.471981 0.260002
v 1.354699 3.270534 -0.259998
v 1.354699 3.270534 0.260002
v 1.966719 2.943403 -0.259998
v 1.966719 2.943403 0.260002
v 2.503158 2.503159 -0.259998
v 2.503158 2.503159 0.260002
v 2.943403 1.966719 -0.259998
v 2.943403 1.966719 0.260002
v 3.270533 1.354700 -0.259997
v 3.270533 1.354700 0.260003
v 3.471980 0.690620 -0.259997
v 3.471980 0.690620 0.260003
v 3.540000 0.000001 -0.259997
v 3.540000 0.000001 0.260003
v 3.471980 -0.690619 -0.259997
v 3.471980 -0.690619 0.260003
v 3.270534 -1.354698 -0.259997
v 3.270534 -1.354698 0.260003
v 2.943403 -1.966718 -0.259997
v 2.943403 -1.966718 0.260003
v 2.503158 -2.503157 -0.259997
v 2.503158 -2.503157 0.260003
v 1.966718 -2.943402 -0.259997
v 1.966718 -2.943402 0.260003
v 1.354699 -3.270533 -0.259997
v 1.354699 -3.270533 0.260003
v 0.690619 -3.471979 -0.259997
v 0.690619 -3.471979 0.260003
v -0.000001 -3.539999 -0.259997
v -0.000001 -3.539999 0.260003
v -0.690621 -3.471979 -0.259997
v -0.690621 -3.471979 0.260003
v -1.354701 -3.270532 -0.259997
v -1.354701 -3.270532 0.260003
v -1.966720 -2.943401 -0.259997
v -1.966720 -2.943401 0.260003
v -2.503160 -2.503156 -0.259997
v -2.503160 -2.503156 0.260003
v -2.943404 -1.966716 -0.259997
v -2.943404 -1.966716 0.260003
v -3.270535 -1.354696 -0.259997
v -3.270535 -1.354696 0.260003
v -3.471980 -0.690616 -0.259997
v -3.471980 -0.690616 0.260003
v -3.540000 0.000004 -0.259997
v -3.540000 0.000004 0.260003
v -3.471979 0.690624 -0.259997
v -3.471979 0.690624 0.260003
v -3.270532 1.354704 -0.259997
v -3.270532 1.354704 0.260003
v -2.943400 1.966723 -0.259998
v -2.943400 1.966723 0.260002
v -2.503155 2.503162 -0.259998
v -2.503155 2.503162 0.260002
v -1.966715 2.943406 -0.259998
v -1.966715 2.943406 0.260002
v -1.354695 3.270536 -0.259998
v -1.354695 3.270536 0.260002
v -0.690614 3.471982 -0.259998
v -0.690614 3.471982 0.260002
vn 0.000000 0.727900 -0.685700
vn 0.000000 0.727900 0.685700
vn 0.142000 0.713900 0.685700
vn 0.142000 0.713900 -0.685700
vn 0.278500 0.672500 0.685700
vn 0.278500 0.672500 -0.685700
vn 0.404400 0.605200 0.685700
vn 0.404400 0.605200 -0.685700
vn 0.514700 0.514700 0.685700
vn 0.514700 0.514700 -0.685700
vn 0.605200 0.404400 0.685700
vn 0.605200 0.404400 -0.685700
vn 0.672500 0.278500 0.685700
vn 0.672500 0.278500 -0.685700
vn 0.713900 0.142000 0.685700
vn 0.713900 0.142000 -0.685700
vn 0.727900 0.000000 0.685700
vn 0.727900 0.000000 -0.685700
vn 0.713900 -0.142000 0.685700
vn 0.713900 -0.142000 -0.685700
vn 0.672500 -0.278500 0.685700
vn 0.672500 -0.278500 -0.685700
vn 0.605200 -0.404400 0.685700
vn 0.605200 -0.404400 -0.685700
vn 0.514700 -0.514700 0.685700
vn 0.514700 -0.514700 -0.685700
vn 0.404400 -0.605200 0.685700
vn 0.404400 -0.605200 -0.685700
vn 0.278500 -0.672500 0.685700
vn 0.278500 -0.672500 -0.685700
vn 0.142000 -0.713900 0.685700
vn 0.142000 -0.713900 -0.685700
vn 0.000000 -0.727900 0.685700
vn 0.000000 -0.727900 -0.685700
vn -0.142000 -0.713900 0.685700
vn -0.142000 -0.713900 -0.685700
vn -0.278500 -0.672500 0.685700
vn -0.278500 -0.672500 -0.685700
vn -0.404400 -0.605200 0.685700
vn -0.404400 -0.605200 -0.685700
vn -0.514700 -0.514700 0.685700
vn -0.514700 -0.514700 -0.685700
vn -0.605200 -0.404400 0.685700
vn -0.605200 -0.404400 -0.685700
vn -0.672500 -0.278500 0.685700
vn -0.672500 -0.278500 -0.685700
vn -0.713900 -0.142000 0.685700
vn -0.713900 -0.142000 -0.685700
vn -0.727900 0.000000 0.685700
vn -0.727900 0.000000 -0.685700
vn -0.713900 0.142000 0.685700
vn -0.713900 0.142000 -0.685700
vn -0.672500 0.278500 0.685700
vn -0.672500 0.278500 -0.685700
vn -0.605200 0.404400 0.685700
vn -0.605200 0.404400 -0.685700
vn -0.514700 0.514700 0.685700
vn -0.514700 0.514700 -0.685700
vn -0.404400 0.605200 0.685700
vn -0.404400 0.605200 -0.685700
vn -0.278500 0.672500 0.685700
vn -0.278500 0.672500 -0.685700
vn -0.142000 0.713900 0.685700
vn -0.142000 0.713900 -0.685700
usemtl SOS
s 1
f 232//3 233//4 235//5 234//6
f 234//6 235//5 237//7 236//8
f 236//8 237//7 239//9 238//10
f 238//10 239//9 241//11 240//12
f 240//12 241//11 243//13 242//14
f 242//14 243//13 245//15 244//16
f 244//16 245//15 247//17 246//18
f 246//18 247//17 249//19 248//20
f 248//20 249//19 251//21 250//22
f 250//22 251//21 253//23 252//24
f 252//24 253//23 255//25 254//26
f 254//26 255//25 257//27 256//28
f 256//28 257//27 259//29 258//30
f 258//30 259//29 261//31 260//32
f 260//32 261//31 263//33 262//34
f 262//34 263//33 265//35 264//36
f 264//36 265//35 267//37 266//38
f 266//38 267//37 269//39 268//40
f 268//40 269//39 271//41 270//42
f 270//42 271//41 273//43 272//44
f 272//44 273//43 275//45 274//46
f 274//46 275//45 277//47 276//48
f 276//48 277//47 279//49 278//50
f 278//50 279//49 281//51 280//52
f 280//52 281//51 283//53 282//54
f 282//54 283//53 285//55 284//56
f 284//56 285//55 287//57 286//58
f 286//58 287//57 289//59 288//60
f 288//60 289//59 291//61 290//62
f 290//62 291//61 293//63 292//64
f 235//5 233//4 295//65 293//63 291//61 289//59 287//57 285//55 283//53 281//51 279//49 277//47 275//45 273//43 271//41 269//39 267//37 265//35 263//33 261//31 259//29 257//27 255//25 253//23 251//21 249//19 247//17 245//15 243//13 241//11 239//9 237//7
f 292//64 293//63 295//65 294//66
f 294//66 295//65 233//4 232//3
f 232//3 234//6 236//8 238//10 240//12 242//14 244//16 246//18 248//20 250//22 252//24 254//26 256//28 258//30 260//32 262//34 264//36 266//38 268//40 270//42 272//44 274//46 276//48 278//50 280//52 282//54 284//56 286//58 288//60 290//62 292//64 294//66
